<?xml version="1.0" encoding="UTF-8"?>
<svg id="Layer_2" data-name="Layer 2" xmlns="http://www.w3.org/2000/svg" viewBox="0 0 1088 1088">
  <defs>
    <style>
      .cls-1 {
        fill: #fff;
      }
    </style>
  </defs>
  <g id="Layer_1" data-name="Layer 1">
    <g>
      <rect width="1088" height="1088"/>
      <g>
        <path class="cls-1" d="M914.02,410.43c-16.2-3.06-32.7-4.26-49.16-4.8-18.53-.4-37.01,1.41-55.28,4.21-.28-38.94-7.75-77.81-22.27-113.95-3.39-8.26-6.69-16.6-11.04-24.39-1.25.09-2.47.42-3.67.78-10.76,3.65-21.47,7.49-31.92,12.01-22.41,9.79-43.6,22.37-63.38,36.8-10.64,7.68-20.34,16.53-30.14,25.26-10.24-23.38-24.56-44.92-41.65-63.82-17.61-19.68-38.19-36.73-60.79-50.33-32.77,20.98-61.64,48.36-82.8,81.08-7.13,10.5-13.25,21.66-18.36,33.29-2.43-1.98-4.76-4.05-6.99-6.21-35.24-31.85-77.65-55.89-123.3-69.26-14.36,28.58-24.72,59.16-30.25,90.66-2.78,15.87-3.93,31.92-4.69,48-22.39-3.46-45.16-5.2-67.8-3.44-20.67,1.18-41.2,4.54-61.33,9.44-.35,7.3.12,14.64.59,21.94,1.2,13.21,2.5,26.46,5.16,39.48,2.75,14.53,6.76,28.79,11.3,42.87,16.79,49.77,45.58,95.56,83.77,131.7,7.67,7.06,15.56,13.84,23.73,20.29,14.67,11.61,30.39,21.87,46.92,30.61,12.41,6.71,25.17,12.78,38.42,17.68,10.1,3.84,20.39,7.25,30.84,10.12,6.73,1.62,13.42,3.41,20.2,4.76,10.64,2.17,21.42,3.48,32.21,4.78,17.96,1.93,36.09,2.07,54.1.78,10.29-.78,20.53-2.21,30.82-3.34,10.55-2.17,21.52-2.31,32.04.02,10.45,1.18,20.86,2.87,31.36,3.41,10.71,1.01,21.47.71,32.23.75,10.12,0,20.22-.89,30.28-2.19,15.11-1.72,30.09-4.66,44.8-8.55,10.62-3.01,21.12-6.47,31.38-10.45,30.7-11.91,59.61-28.37,85.46-48.76,8.26-6.45,15.92-13.63,23.68-20.62,5.2-4.47,9.91-9.53,14.55-14.6,10.15-11.21,19.47-23.19,27.9-35.74,14.62-21.82,27.15-45.16,36.11-69.88,10.67-28.27,17.38-57.99,20.22-88.05.92-8.99.89-18.03,1.65-27.05-8.29-1.86-16.53-3.88-24.91-5.3ZM404.57,704.27c-25.85-6.33-50.97-15.85-74.09-29.05-23.38-12.95-44.71-29.36-63.9-47.93-19.8-19.68-36.94-42.09-50.52-66.49-16.15-28.72-27.24-60.2-33.05-92.59-1.37-9.42-3.11-18.86-3.23-28.37,16.88-3.11,34.07-4.78,51.25-4.33,11.25-.33,22.48.85,33.64,2.07,4.83.59,9.61,1.39,14.34,2.47,3.48,46.14,16.53,91.7,38.87,132.29,29.69,55.35,76.11,101.42,131.46,131.04,5.7,3.08,11.87,5.32,17.26,8.99-20.88-.38-41.74-3.2-62.04-8.1ZM447.75,669.08c-22.58-13.7-42.94-30.84-61.09-50.03-17.99-19.4-33.64-41.04-45.79-64.6-17.37-33.29-28.65-69.88-32.09-107.33,12.08,2.87,23.59,7.56,34.96,12.41,25.12,11.13,48.66,25.87,69.78,43.51,19.12,15.94,36.52,34.02,50.97,54.27,23.9,32.87,41.29,70.58,49.77,110.39,2.28,10.9,4.28,21.92,5.06,33.05-25.12-7.23-49.2-18.11-71.57-31.67ZM545.8,649.39c-.4,1.95-1.39,3.7-2.52,5.3-1.51-1.58-2.73-3.46-3.2-5.6-6.78-27.07-17.82-52.99-31.67-77.2-11.96-21.16-26.39-40.92-42.54-59.04-6.66-7.39-13.84-14.24-20.98-21.14-6.85-6.07-13.89-11.91-20.72-18.01-2.78-1.67-5.3-3.67-7.79-5.67-22.48-16.2-46.87-29.71-72.56-40.09-11.68-4.66-23.68-8.31-35.79-11.63-.52-30.77,4.73-61.47,14.08-90.73,1.88-6.07,4.17-12.03,6.52-17.94,11.04,3.79,21.45,9.21,31.78,14.57,24.65,13.23,47.11,30.35,67.05,49.89,1.46,1.44,3.08,2.78,4.19,4.5.12,1.3-.31,2.54-.59,3.79-7.09,25.24-9.65,51.94-5.91,77.95.38,3.72.92,7.44,1.95,11.04,4.83-5.41,9.39-11.14,14.97-15.8,3.56-3.01,7.13-6.1,10.85-8.9-.75-14.46-.33-29.05,2.73-43.23,5.37-27.05,16.39-52.92,31.74-75.81,14.03-21.26,31.62-40.09,51.39-56.08,1.86-1.53,3.67-3.22,5.86-4.28,2.33,1.15,4.26,2.94,6.31,4.5,10.83,8.33,20.77,17.77,30.04,27.76,17.82,19,32.37,41.25,41.95,65.5,6.92,17.66,11.8,36.21,13.33,55.14.35,9.46.66,18.98-.38,28.42,9.18,6.78,17.28,14.93,24.67,23.61,2.07-5.65,2.66-11.68,3.51-17.56,3.3-25.5.42-51.44-6.05-76.21,15.84-16.57,33.88-31.03,53.11-43.46,15.52-9.96,32-18.46,49.16-25.12,13.51,34.47,20.13,71.57,19.71,108.58-34.09,8.95-66.56,23.66-96.03,42.92-7.11,4.5-13.8,9.63-20.69,14.41-7.13,6.38-14.78,12.1-21.78,18.6-32.23,30.18-59.38,66.06-77.76,106.3-7.68,16.27-13.84,33.24-17.96,50.76ZM585.78,695.18c-6.43,2.14-12.81,4.73-19.52,5.96-.07-5.27,1.01-10.48,1.72-15.7,3.51-23.1,9.58-45.84,18.9-67.29,17.09-40.4,43.34-76.8,75.95-106.16,30.37-27,65.92-48.47,104.51-61.45,3.67-1.32,7.35-2.57,11.14-3.44-2.1,23.26-7.75,46.07-15.21,68.16-18.43,52.41-51.84,99.59-95.49,134.01-24.7,19.49-52.55,34.89-82,45.91ZM907.78,442.73c-1.39,14.69-3.79,29.31-7.42,43.63-7.09,30.28-19.33,59.3-35.55,85.81-12.22,20.06-27.1,38.4-43.65,55.02-18.13,18.1-38.54,33.97-60.86,46.59-37.22,21.45-79.18,34.77-122.05,37.83-5.93-.07-11.82,1.18-17.73.73,4.8-2.92,10.03-4.99,15-7.65,12.62-6.78,24.81-14.36,36.51-22.65,10.85-8.05,21.71-16.15,31.5-25.54,9.02-7.75,16.88-16.72,24.93-25.47,17.47-20.01,32.35-42.26,44.45-65.92,17.94-34.7,29.19-72.75,33.83-111.5.64-4.43.61-8.95,1.58-13.3,4.73-1.74,9.89-1.84,14.83-2.71,11.87-1.41,23.85-2.45,35.83-2.1,15.87-.49,31.74,1.32,47.39,3.79,1.95-.16,1.32,2.17,1.39,3.44Z"/>
        <path class="cls-1" d="M663.31,473.74c-7.13,6.38-14.78,12.1-21.78,18.6-14.31-20.67-36.59-35.08-60.6-41.95-24.34-6.92-50.62-7.04-75.03-.28-14.71,4.28-28.89,10.9-40.82,20.62-7.72,5.96-14.34,13.21-20.18,20.98-6.85-6.07-13.89-11.91-20.72-18.01.97-1.48,1.91-2.94,2.94-4.33,4.83-5.41,9.39-11.14,14.97-15.8,3.56-3.01,7.13-6.1,10.85-8.9,17.07-12.5,37.06-20.77,57.77-24.89,43.01-9.18,89.75.68,125.2,26.79,9.18,6.78,17.28,14.93,24.67,23.61.92,1.15,1.81,2.35,2.71,3.55Z"/>
        <path class="cls-1" d="M836.54,769.74c-21.59,8.64-44,15.54-67.03,19.12,1.51,5.3,3.93,10.24,5.86,15.37,5.65,14.41,10.05,29.26,13.42,44.35.49,2.19.78,4.43,1.06,6.66-9.72.94-19.52.47-29.24.24-31.24-1.32-62.29-6.99-91.98-16.83-14.36-4.35-28.23-10.29-41.86-16.67-20.74-9.72-40.09-22.15-58.36-35.93-7.79-6.05-15.47-12.27-22.63-19.07-1.01-1.04-2.57-2.31-3.77-.78-12.71,12.1-26.72,22.77-41.2,32.68-29.05,19.63-61.28,34.32-94.97,43.95-24.23,7.27-49.46,10.97-74.7,12.43-10.95.45-21.94.97-32.84-.26,1.48-9.75,4.26-19.23,7.09-28.68,2.45-7.84,4.87-15.75,7.96-23.4,1.67-4.83,4.05-9.32,5.6-14.17-26.53-4.5-52.48-12.43-76.96-23.52-19.73-8.95-38.8-19.4-56.36-32.14-2.64-2.05-5.72-3.63-8.03-6.07.28-2.52,2.4-4.36,3.79-6.38,19.21-25.57,41.6-48.85,67.1-68.2.38-.19,1.15-.54,1.53-.71,7.67,7.06,15.56,13.84,23.73,20.29-11.42,8.38-22.44,17.35-32.65,27.17-6.64,6.52-13.35,13.07-19.05,20.41,33.83,20.86,72.09,34.49,111.43,40.07,7.89-13.49,15.63-27.22,25.61-39.36,10.1,3.84,20.39,7.25,30.84,10.12-14.41,18.18-26.72,38.02-36.87,58.83-5.16,11.23-10.27,22.53-13.99,34.33,11.89-.59,23.57-2.92,35.27-5.02,52.92-10.73,103.05-35.53,143.28-71.59,3.37-3.04,6.92-5.91,9.63-9.58,10.55-2.17,21.52-2.31,32.04.02,17.73,17.56,37.95,32.47,59.38,45.13,33.36,19.54,70.56,32.32,108.75,38.23,7.3,1.18,14.64,2.49,22.08,2.8-2.33-7.96-5.89-15.49-9.09-23.12-10.43-22.84-23.33-44.59-38.63-64.48-1.29-1.72-2.57-3.41-3.81-5.13,10.62-3.01,21.12-6.47,31.38-10.45,6.47,9.77,13.42,19.23,19.31,29.4,1.93,3.39,3.84,6.78,5.89,10.12,28.53-4.33,56.64-12.2,82.87-24.41,10.17-4.66,20.01-10.08,29.64-15.8-3.65-4.99-8.26-9.18-12.41-13.77-9.72-9.82-20.11-19-31.08-27.4-3.04-2.17-6.03-4.35-8.76-6.9,8.26-6.45,15.92-13.63,23.68-20.62,10.45,8.05,20.76,16.29,30.28,25.45,9.04,8.26,17.14,17.47,25.29,26.58,6.17,7.77,12.78,15.28,17.82,23.83-22.79,17.96-48.59,31.76-75.34,42.85Z"/>
      </g>
    </g>
  </g>
</svg>